<?xml version="1.0" encoding="UTF-8" standalone="no"?>
<svg
   xmlns:osb="http://www.openswatchbook.org/uri/2009/osb"
   xmlns:dc="http://purl.org/dc/elements/1.1/"
   xmlns:cc="http://creativecommons.org/ns#"
   xmlns:rdf="http://www.w3.org/1999/02/22-rdf-syntax-ns#"
   xmlns:svg="http://www.w3.org/2000/svg"
   xmlns="http://www.w3.org/2000/svg"
   xmlns:sodipodi="http://sodipodi.sourceforge.net/DTD/sodipodi-0.dtd"
   xmlns:inkscape="http://www.inkscape.org/namespaces/inkscape"
   enable-background="new 0 0 48 48"
   height="48px"
   version="1.1"
   viewBox="0 0 48 48"
   width="48px"
   xml:space="preserve"
   id="svg2985"
   inkscape:version="0.48.2 r9819"
   sodipodi:docname="locked-node.svg"><metadata
     id="metadata3010"><rdf:RDF><cc:Work
         rdf:about=""><dc:format>image/svg+xml</dc:format><dc:type
           rdf:resource="http://purl.org/dc/dcmitype/StillImage" /><dc:title></dc:title></cc:Work></rdf:RDF></metadata><defs
     id="defs3008"><linearGradient
       id="linearGradient3798"
       osb:paint="solid"><stop
         style="stop-color:#000000;stop-opacity:1;"
         offset="0"
         id="stop3800" /></linearGradient></defs><sodipodi:namedview
     pagecolor="#ffffff"
     bordercolor="#666666"
     borderopacity="1"
     objecttolerance="10"
     gridtolerance="10"
     guidetolerance="10"
     inkscape:pageopacity="0"
     inkscape:pageshadow="2"
     inkscape:window-width="1092"
     inkscape:window-height="702"
     id="namedview3006"
     showgrid="false"
     inkscape:zoom="9.8333333"
     inkscape:cx="24.226619"
     inkscape:cy="20.232951"
     inkscape:window-x="1294"
     inkscape:window-y="499"
     inkscape:window-maximized="0"
     inkscape:current-layer="svg2985" /><g
     id="Expanded"
     transform="matrix(0.38418079,0,0,0.38559322,31.152543,14.237288)"
     style="fill:#000000;fill-opacity:1;stroke:none;stroke-opacity:1"><g
       id="g2988"
       style="fill:#000000;fill-opacity:1;stroke:none;stroke-opacity:1"><g
         id="g2990"
         style="fill:#000000;fill-opacity:1;stroke:none;stroke-opacity:1"><circle
           cx="24"
           cy="30"
           r="2"
           id="circle2992"
           d="m 26,30 c 0,1.104569 -0.895431,2 -2,2 -1.104569,0 -2,-0.895431 -2,-2 0,-1.104569 0.895431,-2 2,-2 1.104569,0 2,0.895431 2,2 z"
           sodipodi:cx="24"
           sodipodi:cy="30"
           sodipodi:rx="2"
           sodipodi:ry="2"
           style="fill:#000000;fill-opacity:1;stroke:none;stroke-opacity:1" /></g><g
         id="g2994"
         style="fill:#000000;fill-opacity:1;stroke:none;stroke-opacity:1"><path
           d="m 24,38 c -0.553,0 -1,-0.447 -1,-1 v -6 c 0,-0.553 0.447,-1 1,-1 0.553,0 1,0.447 1,1 v 6 c 0,0.553 -0.447,1 -1,1 z"
           id="path2996"
           inkscape:connector-curvature="0"
           style="fill:#000000;fill-opacity:1;stroke:none;stroke-opacity:1" /></g><g
         id="g2998"
         style="fill:#000000;fill-opacity:1;stroke:none;stroke-opacity:1"><path
           d="M 42,48 H 6 V 18 H 42 V 48 z M 8,46 H 40 V 20 H 8 v 26 z"
           id="path3000"
           inkscape:connector-curvature="0"
           style="fill:#000000;fill-opacity:1;stroke:none;stroke-opacity:1" /></g><g
         id="g3002"
         style="fill:#000000;fill-opacity:1;stroke:none;stroke-opacity:1"><path
           d="M 36,19 H 34 V 12 C 34,6.486 29.514,2 24,2 18.486,2 14,6.486 14,12 v 7 H 12 V 12 C 12,5.383 17.383,0 24,0 30.617,0 36,5.383 36,12 v 7 z"
           id="path3004"
           inkscape:connector-curvature="0"
           style="fill:#000000;fill-opacity:1;stroke:none;stroke-opacity:1" /></g></g></g><rect
     style="fill:#ffff00;stroke:#000000;stroke-opacity:1"
     id="rect3012"
     width="15.661017"
     height="11.288136"
     x="0.71186489"
     y="20.949154" /><path
     sodipodi:type="arc"
     style="fill:#ffffff;stroke:#000000;stroke-opacity:1"
     id="path3782"
     sodipodi:cx="2.8983052"
     sodipodi:cy="26.491526"
     sodipodi:rx="0.15254237"
     sodipodi:ry="0.25423729"
     d="m 3.0508475,26.491526 a 0.15254237,0.25423729 0 1 1 -0.3050847,0 0.15254237,0.25423729 0 1 1 0.3050847,0 z"
     transform="translate(0.50847458,0)" /><path
     transform="translate(5.7966102,0.10169492)"
     d="m 3.0508475,26.491526 a 0.15254237,0.25423729 0 1 1 -0.3050847,0 0.15254237,0.25423729 0 1 1 0.3050847,0 z"
     sodipodi:ry="0.25423729"
     sodipodi:rx="0.15254237"
     sodipodi:cy="26.491526"
     sodipodi:cx="2.8983052"
     id="path3784"
     style="fill:#ffffff;stroke:#000000;stroke-opacity:1"
     sodipodi:type="arc" /><path
     sodipodi:type="arc"
     style="fill:#ffffff;stroke:#000000;stroke-opacity:1"
     id="path3786"
     sodipodi:cx="2.8983052"
     sodipodi:cy="26.491526"
     sodipodi:rx="0.15254237"
     sodipodi:ry="0.25423729"
     d="m 3.0508475,26.491526 a 0.15254237,0.25423729 0 1 1 -0.3050847,0 0.15254237,0.25423729 0 1 1 0.3050847,0 z"
     transform="translate(10.932203,0.15254238)" /><path
     style="fill:none;stroke:#000000;stroke-width:2;stroke-linecap:butt;stroke-linejoin:miter;stroke-opacity:1;stroke-miterlimit:4;stroke-dasharray:none"
     d="M 11.793103,12.189236 C 16.054218,2.5246406 30.744763,1.3549233 34.804036,11.757781"
     id="path3790"
     inkscape:connector-curvature="0"
     sodipodi:nodetypes="cc" /><path
     sodipodi:nodetypes="cc"
     inkscape:connector-curvature="0"
     id="path3792"
     d="m 12.080739,37.514476 c 4.261115,9.664596 18.95166,10.834313 23.010933,0.431455"
     style="fill:none;stroke:#000000;stroke-width:1;stroke-linecap:butt;stroke-linejoin:miter;stroke-opacity:1;stroke-miterlimit:4;stroke-dasharray:none" /><path
     style="fill:#000000;fill-opacity:1;stroke:#000000;stroke-width:1.16408169px;stroke-linecap:butt;stroke-linejoin:miter;stroke-opacity:1"
     d="m 10.868416,37.295666 c 0.184185,4.86956 0.184185,4.86956 0.184185,4.86956 l 4.973011,-3.804343 z"
     id="path3794"
     inkscape:connector-curvature="0" /><path
     style="fill:#000000;stroke:#000000;stroke-width:1px;stroke-linecap:butt;stroke-linejoin:miter;stroke-opacity:1;fill-opacity:1"
     d="m 35.954582,7.5870497 -5.17746,3.5954583 4.746005,1.72582 z"
     id="path3796"
     inkscape:connector-curvature="0" /></svg>