<?xml version="1.0" encoding="UTF-8" standalone="no"?>
<!-- Created with Inkscape (http://www.inkscape.org/) -->

<svg
   xmlns:dc="http://purl.org/dc/elements/1.1/"
   xmlns:cc="http://creativecommons.org/ns#"
   xmlns:rdf="http://www.w3.org/1999/02/22-rdf-syntax-ns#"
   xmlns:svg="http://www.w3.org/2000/svg"
   xmlns="http://www.w3.org/2000/svg"
   xmlns:sodipodi="http://sodipodi.sourceforge.net/DTD/sodipodi-0.dtd"
   xmlns:inkscape="http://www.inkscape.org/namespaces/inkscape"
   width="1111.3383"
   height="1168.5715"
   id="svg2"
   sodipodi:version="0.32"
   inkscape:version="0.48.5 r10040"
   version="1.0"
   sodipodi:docname="device.svg"
   inkscape:output_extension="org.inkscape.output.svg.inkscape">
  <defs
     id="defs4">
    <inkscape:perspective
       sodipodi:type="inkscape:persp3d"
       inkscape:vp_x="0 : 526.18109 : 1"
       inkscape:vp_y="0 : 1000 : 0"
       inkscape:vp_z="744.09448 : 526.18109 : 1"
       inkscape:persp3d-origin="372.04724 : 350.78739 : 1"
       id="perspective10" />
  </defs>
  <sodipodi:namedview
     id="base"
     pagecolor="#ffffff"
     bordercolor="#666666"
     borderopacity="1.0"
     gridtolerance="10000"
     guidetolerance="10"
     objecttolerance="10"
     inkscape:pageopacity="0.0"
     inkscape:pageshadow="2"
     inkscape:zoom="0.49497475"
     inkscape:cx="569.8793"
     inkscape:cy="613.86405"
     inkscape:document-units="px"
     inkscape:current-layer="g2386"
     showgrid="false"
     showborder="false"
     inkscape:window-width="1229"
     inkscape:window-height="900"
     inkscape:window-x="729"
     inkscape:window-y="133"
     inkscape:window-maximized="0" />
  <metadata
     id="metadata7">
    <rdf:RDF>
      <cc:Work
         rdf:about="">
        <dc:format>image/svg+xml</dc:format>
        <dc:type
           rdf:resource="http://purl.org/dc/dcmitype/StillImage" />
      </cc:Work>
    </rdf:RDF>
  </metadata>
  <g
     inkscape:label="Layer 1"
     inkscape:groupmode="layer"
     id="layer1"
     transform="translate(2201.53,2081.9236)">
    <g
       id="g2386"
       transform="matrix(0.2535648,0,0,0.2535648,-1643.2995,-1554.0211)">
      <path
         style="fill:none;stroke:#000000;stroke-width:87.90245819000000438;stroke-linecap:round;stroke-linejoin:round;stroke-miterlimit:4;stroke-opacity:1;stroke-dasharray:none"
         d="M 276.26947 1009.8048 C 136.39218 918.47222 43.951216 760.54429 43.951216 581.02561 C 43.951216 402.78518 135.08043 245.82911 273.28876 154.20752 "
         id="path4029"
         transform="matrix(3.9437651,0,0,3.9437651,-2201.5299,-2081.9234)" />
      <path
         style="fill:none;stroke:#000000;stroke-width:87.90245819000000438;stroke-linecap:round;stroke-linejoin:round;stroke-miterlimit:4;stroke-opacity:1;stroke-dasharray:none"
         d="M 838.32091 154.38757 C 976.37712 246.03466 1067.387 402.90188 1067.387 581.02561 L 1067.387 581.02561 L 1067.387 581.02561 C 1067.387 760.43573 975.05785 918.2812 835.32251 1009.639 "
         id="path3999"
         transform="matrix(3.9437651,0,0,3.9437651,-2201.5299,-2081.9234)" />
      <path
         style="fill:none;stroke:#000000;stroke-width:59.93870543999999967;stroke-linecap:round;stroke-linejoin:round;stroke-miterlimit:4;stroke-opacity:1;stroke-dasharray:none"
         d="M 365.84017 873.84814 C 270.07659 811.63973 206.74022 703.72918 206.74022 581.02561 C 206.74022 459.60155 268.76259 352.66359 362.85505 290.16401 "
         id="path4034"
         transform="matrix(3.9437651,0,0,3.9437651,-2201.5299,-2081.9234)" />
      <path
         style="fill:none;stroke:#000000;stroke-width:59.93870543999999967;stroke-linecap:round;stroke-linejoin:round;stroke-miterlimit:4;stroke-opacity:1;stroke-dasharray:none"
         d="M 748.99587 290.50519 C 842.80089 353.05231 904.59804 459.82221 904.59804 581.02561 L 904.59804 581.02561 C 904.59804 703.5119 841.48577 811.25753 746.00649 873.51725 "
         id="path4002"
         transform="matrix(3.9437651,0,0,3.9437651,-2201.5299,-2081.9234)" />
      <path
         style="fill:none;stroke:#000000;stroke-width:37.01759338000000099;stroke-linecap:round;stroke-linejoin:round;stroke-miterlimit:4;stroke-opacity:1;stroke-dasharray:none"
         d="M 439.27836 762.41677 C 379.66305 724.08497 340.17385 657.16688 340.17385 581.02561 C 340.17385 506.17347 378.3372 440.23485 436.26778 401.6059 "
         id="path4039"
         transform="matrix(3.9437651,0,0,3.9437651,-2201.5299,-2081.9234)" />
      <path
         style="fill:none;stroke:#000000;stroke-width:37.01759338000000099;stroke-linecap:round;stroke-linejoin:round;stroke-miterlimit:4;stroke-opacity:1;stroke-dasharray:none"
         d="M 675.76008 402.06763 C 733.30373 440.75896 771.16443 506.47087 771.16443 581.02561 L 771.16443 581.02561 C 771.16443 656.85959 731.99334 723.54467 672.78073 761.95128 "
         id="path4005"
         transform="matrix(3.9437651,0,0,3.9437651,-2201.5299,-2081.9234)" />
      <path
         style="fill:none;stroke:#000000;stroke-width:20.28518486000000109;stroke-linecap:round;stroke-linejoin:round;stroke-miterlimit:4;stroke-opacity:1;stroke-dasharray:none"
         d="M 492.8969 681.06699 C 459.66605 660.17192 437.58038 623.17796 437.58038 581.02561 C 437.58038 540.17371 458.32435 504.16682 489.85343 482.9638 "
         id="path4044"
         transform="matrix(3.9437651,0,0,3.9437651,-2201.5299,-2081.9234)" />
      <path
         style="fill:none;stroke:#000000;stroke-width:20.28518486000000109;stroke-linecap:round;stroke-linejoin:round;stroke-miterlimit:4;stroke-opacity:1;stroke-dasharray:none"
         d="M 622.30396 483.51965 C 653.37271 504.79269 673.75788 540.52855 673.75788 581.02561 L 673.75788 581.02561 C 673.75788 622.8116 652.05445 659.52847 619.3053 680.51852 "
         id="path4008"
         transform="matrix(3.9437651,0,0,3.9437651,-2201.5299,-2081.9234)" />
      <path
         sodipodi:nodetypes="ccccccsc"
         id="path2385"
         d="M 131.32707,222.36219 C 129.85733,280.3008 96.457805,328.45177 44.931875,352.67094 C 36.472685,356.25085 126.39529,2164.396 129.8183,2222.3445 C -5.6975961,2222.8383 -8.9361161,2222.5375 -151.03146,2223.1095 C -148.6186,2165.161 -56.675715,356.25085 -65.13491,352.67094 C -118.03418,328.65681 -149.22461,279.34006 -151.53008,222.36219 C -151.53008,144.29362 -88.17009,80.933613 -10.101515,80.933613 C 67.967055,80.933613 131.32707,144.29362 131.32707,222.36219 z"
         style="fill:#000000;fill-opacity:1;stroke:none;stroke-width:3;stroke-linecap:round;stroke-linejoin:round;stroke-miterlimit:4;stroke-opacity:1" />
    </g>
  </g>
</svg>
